# xmcd
#
# Track frame offsets: 
#        150
#        12925
#        21755
#        27422
#        38725
#        49117
#        60290
#        71945
#        79575
#        91002
#        101877
#        113505
#        124327
#        136742
#        147982
#        157222
#        167267
#        179640
#        188485
#        197462
#
# Disc length: 2791 seconds
#
# Revision: 1
# Processed by: cddbd v1.5.1PL2 Copyright (c) Steve Scherf et al.
# Submitted via: ExactAudioCopy v0.95b3
#
DISCID=050ae514
DTITLE=Johnny Cash - Travelling Cash - An Imaginary Journey
DYEAR=2006
DGENRE=Country
TTITLE0=Folsom Prison Blues
TTITLE1=Katy Too
TTITLE2=My Treasure
TTITLE3=Mean Eyed Cat
TTITLE4=There You Go
TTITLE5=Cry, Cry, Cry
TTITLE6=Wide Open Road
TTITLE7=Come In Stranger
TTITLE8=Big River
TTITLE9=Fools Hall of Fame
TTITLE10=Port of Lonely Hearts
TTITLE11=Train of Love
TTITLE12=I Walk The Line
TTITLE13=DOn't Make Me Go
TTITLE14=Blue Train
TTITLE15=Hey Porter
TTITLE16=Give My Love To Rose
TTITLE17=Guess Things Happen That Way (undubbed Master)
TTITLE18=Life Goes On
TTITLE19=Doin' My Time
EXTD=(c)2006 Bear Family Records Germany\nupc 4000127168207
EXTT0=
EXTT1=
EXTT2=
EXTT3=
EXTT4=
EXTT5=
EXTT6=
EXTT7=
EXTT8=
EXTT9=
EXTT10=
EXTT11=
EXTT12=
EXTT13=
EXTT14=
EXTT15=
EXTT16=
EXTT17=
EXTT18=
EXTT19=
PLAYORDER=
